<svg width="49" height="49" viewBox="0 0 49 49" fill="none" xmlns="http://www.w3.org/2000/svg">
<path d="M24.4657 5.32812C15.1632 5.32812 7.59546 12.9817 7.59546 22.3896C7.59546 32.3917 16.7828 38.5298 22.862 42.5904L23.9139 43.2971C24.0807 43.4095 24.2732 43.4656 24.4637 43.4656C24.6542 43.4656 24.8468 43.4095 25.0135 43.2971L26.0654 42.5904C32.1446 38.5298 41.332 32.3917 41.332 22.3896C41.3359 12.9817 33.7681 5.32812 24.4657 5.32812ZM24.4657 27.4077C21.7248 27.4077 19.5039 25.1616 19.5039 22.3896C19.5039 19.6177 21.7248 17.3716 24.4657 17.3716C27.2066 17.3716 29.4275 19.6177 29.4275 22.3896C29.4275 25.1616 27.2066 27.4077 24.4657 27.4077Z" fill="#0F6B34"/>
</svg>
