<svg width="41" height="41" viewBox="0 0 41 41" fill="none" xmlns="http://www.w3.org/2000/svg">
<path d="M20.2519 4.33984C12.4998 4.33984 6.19336 10.7178 6.19336 18.5578C6.19336 26.8928 13.8495 32.0079 18.9155 35.3918L19.7921 35.9806C19.931 36.0743 20.0914 36.1211 20.2502 36.1211C20.409 36.1211 20.5694 36.0743 20.7084 35.9806L21.585 35.3918C26.651 32.0079 34.3071 26.8928 34.3071 18.5578C34.3104 10.7178 28.0039 4.33984 20.2519 4.33984ZM20.2519 22.7395C17.9678 22.7395 16.117 20.8678 16.117 18.5578C16.117 16.2478 17.9678 14.376 20.2519 14.376C22.536 14.376 24.3867 16.2478 24.3867 18.5578C24.3867 20.8678 22.536 22.7395 20.2519 22.7395Z" fill="	#ffffff"/>
</svg>
